<?xml version="1.0" standalone="no"?><!DOCTYPE svg PUBLIC "-//W3C//DTD SVG 1.1//EN" "http://www.w3.org/Graphics/SVG/1.1/DTD/svg11.dtd"><svg t="1495274681075" class="icon" style="" viewBox="0 0 1024 1024" version="1.1" xmlns="http://www.w3.org/2000/svg" p-id="4285" xmlns:xlink="http://www.w3.org/1999/xlink" width="16" height="16"><defs><style type="text/css"></style></defs><path d="M768 768H512v-64h256v64z m0-192H576v64h192v-64z m128-288v576c0 17.6-14.4 32-32 32H160c-17.6 0-32-14.4-32-32V288h-0.8l70.4-124.8c11.2-21.6 32.8-35.2 57.6-35.2H768c24 0 46.4 13.6 57.6 35.2L896 288zM528 192v96h304.8l-44.8-77.6c-4-9.6-12.8-16.8-23.2-18.4m-505.6 0c-10.4 1.6-19.2 8.8-23.2 18.4L191.2 288H496V192m336 128H192v512h640V320z" p-id="4286"></path></svg>